<?xml version="1.0" standalone="no"?>
<!DOCTYPE svg PUBLIC "-//W3C//DTD SVG 20010904//EN"
 "http://www.w3.org/TR/2001/REC-SVG-20010904/DTD/svg10.dtd">
<svg version="1.0" xmlns="http://www.w3.org/2000/svg"
 width="300.000000pt" height="300.000000pt" viewBox="0 0 300.000000 300.000000"
 preserveAspectRatio="xMidYMid meet">
<metadata>
Created by potrace 1.14, written by Peter Selinger 2001-2017
</metadata>
<g transform="translate(0.000000,300.000000) scale(0.100000,-0.100000)"
fill="#000000" stroke="none">
<path d="M230 1775 l0 -1025 450 0 450 0 0 -45 c0 -129 67 -280 170 -383 177
-176 486 -268 788 -233 375 44 587 224 609 517 10 143 -26 273 -105 376 -92
121 -294 237 -570 327 -328 108 -434 200 -404 350 28 136 160 210 355 198 155
-8 256 -77 292 -201 8 -27 15 -60 15 -73 l0 -23 210 0 210 0 0 28 c-1 59 -31
171 -67 242 -44 86 -139 187 -226 239 -137 81 -262 111 -464 111 -185 0 -292
-23 -428 -89 -221 -108 -339 -296 -322 -514 20 -270 214 -440 687 -603 305
-104 383 -163 397 -297 8 -79 -11 -134 -66 -189 -60 -59 -128 -81 -258 -80
-199 0 -316 59 -375 187 -21 46 -23 66 -26 267 l-4 218 -449 0 -449 0 0 860 0
860 -210 0 -210 0 0 -1025z"/>
</g>
</svg>
